<svg xmlns="http://www.w3.org/2000/svg" xmlns:xlink="http://www.w3.org/1999/xlink" width="500" zoomAndPan="magnify" viewBox="0 0 375 374.999991" height="500" preserveAspectRatio="xMidYMid meet" version="1.0"><defs><g/><clipPath id="73dbfb8ff5"><rect x="0" width="55" y="0" height="12"/></clipPath><clipPath id="77ed20eabd"><rect x="0" width="31" y="0" height="13"/></clipPath><clipPath id="7cd85e146d"><rect x="0" width="39" y="0" height="12"/></clipPath></defs><g fill="#ffffff" fill-opacity="1"><g transform="translate(93.671607, 259.369567)"><g><path d="M 63.828125 2.734375 C 57.078125 2.734375 50.175781 1.9375 43.125 0.34375 C 36.070312 -1.25 29.222656 -3.617188 22.578125 -6.765625 C 15.941406 -9.921875 9.816406 -13.734375 4.203125 -18.203125 L 22.53125 -44.484375 C 25.945312 -40.847656 29.890625 -37.53125 34.359375 -34.53125 C 38.835938 -31.539062 43.597656 -29.171875 48.640625 -27.421875 C 53.679688 -25.679688 58.785156 -24.8125 63.953125 -24.8125 C 67.441406 -24.8125 70.625 -25.285156 73.5 -26.234375 C 76.382812 -27.179688 78.679688 -28.660156 80.390625 -30.671875 C 82.097656 -32.679688 82.953125 -35.238281 82.953125 -38.34375 C 82.953125 -42.132812 81.488281 -44.898438 78.5625 -46.640625 C 75.644531 -48.390625 71.265625 -50.023438 65.421875 -51.546875 L 48.921875 -55.875 C 41.109375 -57.988281 34.414062 -60.675781 28.84375 -63.9375 C 23.269531 -67.207031 19.003906 -71.363281 16.046875 -76.40625 C 13.085938 -81.445312 11.609375 -87.648438 11.609375 -95.015625 C 11.609375 -104.421875 13.863281 -112.191406 18.375 -118.328125 C 22.882812 -124.472656 29.140625 -129.0625 37.140625 -132.09375 C 45.148438 -135.132812 54.390625 -136.65625 64.859375 -136.65625 C 72.972656 -136.65625 80.289062 -135.742188 86.8125 -133.921875 C 93.34375 -132.097656 99.28125 -129.6875 104.625 -126.6875 C 109.96875 -123.695312 114.84375 -120.382812 119.25 -116.75 L 102.171875 -93.296875 C 96.253906 -99.210938 90.015625 -103.628906 83.453125 -106.546875 C 76.898438 -109.472656 70.625 -110.9375 64.625 -110.9375 C 59.695312 -110.9375 55.710938 -109.929688 52.671875 -107.921875 C 49.640625 -105.910156 48.125 -103.085938 48.125 -99.453125 C 48.125 -96.566406 49.203125 -94.328125 51.359375 -92.734375 C 53.523438 -91.140625 56.617188 -89.8125 60.640625 -88.75 L 82.828125 -82.71875 C 87.378906 -81.507812 91.910156 -79.9375 96.421875 -78 C 100.941406 -76.0625 105.097656 -73.535156 108.890625 -70.421875 C 112.679688 -67.316406 115.710938 -63.351562 117.984375 -58.53125 C 120.265625 -53.71875 121.40625 -47.75 121.40625 -40.625 C 121.40625 -26.894531 116.53125 -16.234375 106.78125 -8.640625 C 97.039062 -1.054688 82.722656 2.734375 63.828125 2.734375 Z M 63.828125 2.734375 "/></g></g></g><g fill="#ffffff" fill-opacity="1"><g transform="translate(205.936401, 259.369567)"><g><path d="M 23.4375 0 L 23.4375 -41.421875 L 64.515625 -41.421875 L 64.515625 0 Z M 23.4375 0 "/></g></g></g><g transform="matrix(1, 0, 0, 1, 222, 120)"><g clip-path="url(#73dbfb8ff5)"><g fill="#ffffff" fill-opacity="1"><g transform="translate(1.306408, 9.164898)"><g><path d="M 4.09375 -1.59375 C 4.09375 -1.25 4.007812 -0.953125 3.84375 -0.703125 C 3.675781 -0.453125 3.4375 -0.257812 3.125 -0.125 C 2.8125 0.0078125 2.429688 0.078125 1.984375 0.078125 C 1.785156 0.078125 1.59375 0.0625 1.40625 0.03125 C 1.21875 0.0078125 1.035156 -0.0234375 0.859375 -0.078125 C 0.691406 -0.128906 0.53125 -0.191406 0.375 -0.265625 L 0.375 -1.390625 C 0.644531 -1.273438 0.925781 -1.164062 1.21875 -1.0625 C 1.507812 -0.96875 1.796875 -0.921875 2.078125 -0.921875 C 2.273438 -0.921875 2.429688 -0.945312 2.546875 -1 C 2.671875 -1.050781 2.757812 -1.125 2.8125 -1.21875 C 2.875 -1.3125 2.90625 -1.414062 2.90625 -1.53125 C 2.90625 -1.675781 2.851562 -1.796875 2.75 -1.890625 C 2.65625 -1.992188 2.523438 -2.085938 2.359375 -2.171875 C 2.191406 -2.265625 2.003906 -2.363281 1.796875 -2.46875 C 1.660156 -2.53125 1.515625 -2.601562 1.359375 -2.6875 C 1.203125 -2.78125 1.050781 -2.890625 0.90625 -3.015625 C 0.769531 -3.148438 0.65625 -3.3125 0.5625 -3.5 C 0.476562 -3.6875 0.4375 -3.910156 0.4375 -4.171875 C 0.4375 -4.515625 0.515625 -4.804688 0.671875 -5.046875 C 0.828125 -5.285156 1.050781 -5.46875 1.34375 -5.59375 C 1.632812 -5.726562 1.976562 -5.796875 2.375 -5.796875 C 2.664062 -5.796875 2.945312 -5.757812 3.21875 -5.6875 C 3.488281 -5.625 3.769531 -5.523438 4.0625 -5.390625 L 3.671875 -4.453125 C 3.410156 -4.554688 3.175781 -4.632812 2.96875 -4.6875 C 2.757812 -4.75 2.546875 -4.78125 2.328125 -4.78125 C 2.179688 -4.78125 2.050781 -4.753906 1.9375 -4.703125 C 1.832031 -4.660156 1.753906 -4.59375 1.703125 -4.5 C 1.648438 -4.414062 1.625 -4.316406 1.625 -4.203125 C 1.625 -4.066406 1.660156 -3.953125 1.734375 -3.859375 C 1.816406 -3.773438 1.9375 -3.6875 2.09375 -3.59375 C 2.257812 -3.507812 2.460938 -3.410156 2.703125 -3.296875 C 2.992188 -3.160156 3.238281 -3.015625 3.4375 -2.859375 C 3.644531 -2.710938 3.804688 -2.535156 3.921875 -2.328125 C 4.035156 -2.128906 4.09375 -1.882812 4.09375 -1.59375 Z M 4.09375 -1.59375 "/></g></g></g><g fill="#ffffff" fill-opacity="1"><g transform="translate(5.320647, 9.164898)"><g><path d="M 5.90625 -2.859375 C 5.90625 -2.421875 5.847656 -2.019531 5.734375 -1.65625 C 5.628906 -1.300781 5.460938 -0.992188 5.234375 -0.734375 C 5.015625 -0.472656 4.734375 -0.269531 4.390625 -0.125 C 4.054688 0.0078125 3.65625 0.078125 3.1875 0.078125 C 2.71875 0.078125 2.3125 0.0078125 1.96875 -0.125 C 1.632812 -0.269531 1.351562 -0.472656 1.125 -0.734375 C 0.90625 -0.992188 0.738281 -1.300781 0.625 -1.65625 C 0.519531 -2.019531 0.46875 -2.425781 0.46875 -2.875 C 0.46875 -3.46875 0.5625 -3.984375 0.75 -4.421875 C 0.945312 -4.859375 1.25 -5.195312 1.65625 -5.4375 C 2.0625 -5.675781 2.570312 -5.796875 3.1875 -5.796875 C 3.8125 -5.796875 4.320312 -5.675781 4.71875 -5.4375 C 5.125 -5.195312 5.421875 -4.851562 5.609375 -4.40625 C 5.804688 -3.96875 5.90625 -3.453125 5.90625 -2.859375 Z M 1.734375 -2.859375 C 1.734375 -2.460938 1.78125 -2.117188 1.875 -1.828125 C 1.976562 -1.546875 2.132812 -1.328125 2.34375 -1.171875 C 2.5625 -1.015625 2.84375 -0.9375 3.1875 -0.9375 C 3.53125 -0.9375 3.804688 -1.015625 4.015625 -1.171875 C 4.234375 -1.328125 4.390625 -1.546875 4.484375 -1.828125 C 4.585938 -2.117188 4.640625 -2.460938 4.640625 -2.859375 C 4.640625 -3.460938 4.523438 -3.9375 4.296875 -4.28125 C 4.078125 -4.625 3.707031 -4.796875 3.1875 -4.796875 C 2.851562 -4.796875 2.578125 -4.71875 2.359375 -4.5625 C 2.140625 -4.40625 1.976562 -4.179688 1.875 -3.890625 C 1.78125 -3.609375 1.734375 -3.265625 1.734375 -2.859375 Z M 1.734375 -2.859375 "/></g></g></g><g fill="#ffffff" fill-opacity="1"><g transform="translate(11.295817, 9.164898)"><g><path d="M 5.375 -5.71875 L 5.375 -2.015625 C 5.375 -1.617188 5.285156 -1.265625 5.109375 -0.953125 C 4.929688 -0.640625 4.664062 -0.390625 4.3125 -0.203125 C 3.96875 -0.015625 3.53125 0.078125 3 0.078125 C 2.25 0.078125 1.675781 -0.113281 1.28125 -0.5 C 0.882812 -0.882812 0.6875 -1.394531 0.6875 -2.03125 L 0.6875 -5.71875 L 1.890625 -5.71875 L 1.890625 -2.21875 C 1.890625 -1.75 1.984375 -1.414062 2.171875 -1.21875 C 2.367188 -1.03125 2.65625 -0.9375 3.03125 -0.9375 C 3.300781 -0.9375 3.515625 -0.984375 3.671875 -1.078125 C 3.835938 -1.171875 3.957031 -1.3125 4.03125 -1.5 C 4.113281 -1.6875 4.15625 -1.925781 4.15625 -2.21875 L 4.15625 -5.71875 Z M 5.375 -5.71875 "/></g></g></g><g fill="#ffffff" fill-opacity="1"><g transform="translate(16.950676, 9.164898)"><g><path d="M 2.921875 0 L 1.71875 0 L 1.71875 -4.703125 L 0.15625 -4.703125 L 0.15625 -5.71875 L 4.46875 -5.71875 L 4.46875 -4.703125 L 2.921875 -4.703125 Z M 2.921875 0 "/></g></g></g><g fill="#ffffff" fill-opacity="1"><g transform="translate(21.191476, 9.164898)"><g><path d="M 5.40625 0 L 4.1875 0 L 4.1875 -2.46875 L 1.9375 -2.46875 L 1.9375 0 L 0.71875 0 L 0.71875 -5.71875 L 1.9375 -5.71875 L 1.9375 -3.46875 L 4.1875 -3.46875 L 4.1875 -5.71875 L 5.40625 -5.71875 Z M 5.40625 0 "/></g></g></g><g fill="#ffffff" fill-opacity="1"><g transform="translate(26.920553, 9.164898)"><g/></g></g><g fill="#ffffff" fill-opacity="1"><g transform="translate(28.606675, 9.164898)"><g><path d="M 5.3125 0 L 3.9375 0 L 2.4375 -2.40625 L 1.9375 -2.046875 L 1.9375 0 L 0.71875 0 L 0.71875 -5.71875 L 1.9375 -5.71875 L 1.9375 -3.09375 C 2.007812 -3.207031 2.082031 -3.320312 2.15625 -3.4375 C 2.238281 -3.550781 2.320312 -3.660156 2.40625 -3.765625 L 3.953125 -5.71875 L 5.296875 -5.71875 L 3.3125 -3.1875 Z M 5.3125 0 "/></g></g></g><g fill="#ffffff" fill-opacity="1"><g transform="translate(33.527161, 9.164898)"><g><path d="M 5.90625 -2.859375 C 5.90625 -2.421875 5.847656 -2.019531 5.734375 -1.65625 C 5.628906 -1.300781 5.460938 -0.992188 5.234375 -0.734375 C 5.015625 -0.472656 4.734375 -0.269531 4.390625 -0.125 C 4.054688 0.0078125 3.65625 0.078125 3.1875 0.078125 C 2.71875 0.078125 2.3125 0.0078125 1.96875 -0.125 C 1.632812 -0.269531 1.351562 -0.472656 1.125 -0.734375 C 0.90625 -0.992188 0.738281 -1.300781 0.625 -1.65625 C 0.519531 -2.019531 0.46875 -2.425781 0.46875 -2.875 C 0.46875 -3.46875 0.5625 -3.984375 0.75 -4.421875 C 0.945312 -4.859375 1.25 -5.195312 1.65625 -5.4375 C 2.0625 -5.675781 2.570312 -5.796875 3.1875 -5.796875 C 3.8125 -5.796875 4.320312 -5.675781 4.71875 -5.4375 C 5.125 -5.195312 5.421875 -4.851562 5.609375 -4.40625 C 5.804688 -3.96875 5.90625 -3.453125 5.90625 -2.859375 Z M 1.734375 -2.859375 C 1.734375 -2.460938 1.78125 -2.117188 1.875 -1.828125 C 1.976562 -1.546875 2.132812 -1.328125 2.34375 -1.171875 C 2.5625 -1.015625 2.84375 -0.9375 3.1875 -0.9375 C 3.53125 -0.9375 3.804688 -1.015625 4.015625 -1.171875 C 4.234375 -1.328125 4.390625 -1.546875 4.484375 -1.828125 C 4.585938 -2.117188 4.640625 -2.460938 4.640625 -2.859375 C 4.640625 -3.460938 4.523438 -3.9375 4.296875 -4.28125 C 4.078125 -4.625 3.707031 -4.796875 3.1875 -4.796875 C 2.851562 -4.796875 2.578125 -4.71875 2.359375 -4.5625 C 2.140625 -4.40625 1.976562 -4.179688 1.875 -3.890625 C 1.78125 -3.609375 1.734375 -3.265625 1.734375 -2.859375 Z M 1.734375 -2.859375 "/></g></g></g><g fill="#ffffff" fill-opacity="1"><g transform="translate(39.502331, 9.164898)"><g><path d="M 2.390625 -5.71875 C 2.898438 -5.71875 3.320312 -5.65625 3.65625 -5.53125 C 4 -5.40625 4.253906 -5.210938 4.421875 -4.953125 C 4.585938 -4.703125 4.671875 -4.382812 4.671875 -4 C 4.671875 -3.738281 4.617188 -3.507812 4.515625 -3.3125 C 4.421875 -3.125 4.289062 -2.960938 4.125 -2.828125 C 3.96875 -2.691406 3.796875 -2.578125 3.609375 -2.484375 L 5.28125 0 L 3.9375 0 L 2.578125 -2.1875 L 1.9375 -2.1875 L 1.9375 0 L 0.71875 0 L 0.71875 -5.71875 Z M 2.296875 -4.71875 L 1.9375 -4.71875 L 1.9375 -3.171875 L 2.328125 -3.171875 C 2.722656 -3.171875 3.003906 -3.238281 3.171875 -3.375 C 3.347656 -3.507812 3.4375 -3.707031 3.4375 -3.96875 C 3.4375 -4.238281 3.34375 -4.429688 3.15625 -4.546875 C 2.976562 -4.660156 2.691406 -4.71875 2.296875 -4.71875 Z M 2.296875 -4.71875 "/></g></g></g><g fill="#ffffff" fill-opacity="1"><g transform="translate(44.391567, 9.164898)"><g><path d="M 4.015625 0 L 0.71875 0 L 0.71875 -5.71875 L 4.015625 -5.71875 L 4.015625 -4.71875 L 1.9375 -4.71875 L 1.9375 -3.46875 L 3.859375 -3.46875 L 3.859375 -2.46875 L 1.9375 -2.46875 L 1.9375 -1 L 4.015625 -1 Z M 4.015625 0 "/></g></g></g><g fill="#ffffff" fill-opacity="1"><g transform="translate(48.480025, 9.164898)"><g><path d="M 4.21875 0 L 3.796875 -1.359375 L 1.71875 -1.359375 L 1.3125 0 L 0 0 L 2.015625 -5.734375 L 3.5 -5.734375 L 5.515625 0 Z M 3.515625 -2.375 L 3.09375 -3.703125 C 3.070312 -3.796875 3.039062 -3.910156 3 -4.046875 C 2.957031 -4.179688 2.910156 -4.320312 2.859375 -4.46875 C 2.816406 -4.613281 2.785156 -4.738281 2.765625 -4.84375 C 2.734375 -4.738281 2.695312 -4.609375 2.65625 -4.453125 C 2.613281 -4.296875 2.570312 -4.144531 2.53125 -4 C 2.488281 -3.863281 2.457031 -3.765625 2.4375 -3.703125 L 2.03125 -2.375 Z M 3.515625 -2.375 "/></g></g></g></g></g><g transform="matrix(1, 0, 0, 1, 246, 133)"><g clip-path="url(#77ed20eabd)"><g fill="#ffffff" fill-opacity="1"><g transform="translate(1.233415, 9.760947)"><g><path d="M 3.140625 0 L 1.765625 -4.484375 L 1.734375 -4.484375 C 1.734375 -4.378906 1.738281 -4.21875 1.75 -4 C 1.757812 -3.78125 1.769531 -3.550781 1.78125 -3.3125 C 1.789062 -3.070312 1.796875 -2.851562 1.796875 -2.65625 L 1.796875 0 L 0.71875 0 L 0.71875 -5.71875 L 2.375 -5.71875 L 3.71875 -1.34375 L 3.75 -1.34375 L 5.171875 -5.71875 L 6.828125 -5.71875 L 6.828125 0 L 5.703125 0 L 5.703125 -2.703125 C 5.703125 -2.878906 5.703125 -3.082031 5.703125 -3.3125 C 5.710938 -3.550781 5.722656 -3.773438 5.734375 -3.984375 C 5.742188 -4.203125 5.75 -4.363281 5.75 -4.46875 L 5.71875 -4.46875 L 4.25 0 Z M 3.140625 0 "/></g></g></g><g fill="#ffffff" fill-opacity="1"><g transform="translate(8.384362, 9.760947)"><g><path d="M 0.71875 0 L 0.71875 -5.71875 L 1.9375 -5.71875 L 1.9375 0 Z M 0.71875 0 "/></g></g></g><g fill="#ffffff" fill-opacity="1"><g transform="translate(10.640794, 9.760947)"><g><path d="M 2.390625 -5.71875 C 2.898438 -5.71875 3.320312 -5.65625 3.65625 -5.53125 C 4 -5.40625 4.253906 -5.210938 4.421875 -4.953125 C 4.585938 -4.703125 4.671875 -4.382812 4.671875 -4 C 4.671875 -3.738281 4.617188 -3.507812 4.515625 -3.3125 C 4.421875 -3.125 4.289062 -2.960938 4.125 -2.828125 C 3.96875 -2.691406 3.796875 -2.578125 3.609375 -2.484375 L 5.28125 0 L 3.9375 0 L 2.578125 -2.1875 L 1.9375 -2.1875 L 1.9375 0 L 0.71875 0 L 0.71875 -5.71875 Z M 2.296875 -4.71875 L 1.9375 -4.71875 L 1.9375 -3.171875 L 2.328125 -3.171875 C 2.722656 -3.171875 3.003906 -3.238281 3.171875 -3.375 C 3.347656 -3.507812 3.4375 -3.707031 3.4375 -3.96875 C 3.4375 -4.238281 3.34375 -4.429688 3.15625 -4.546875 C 2.976562 -4.660156 2.691406 -4.71875 2.296875 -4.71875 Z M 2.296875 -4.71875 "/></g></g></g><g fill="#ffffff" fill-opacity="1"><g transform="translate(15.53003, 9.760947)"><g><path d="M 4.09375 -1.59375 C 4.09375 -1.25 4.007812 -0.953125 3.84375 -0.703125 C 3.675781 -0.453125 3.4375 -0.257812 3.125 -0.125 C 2.8125 0.0078125 2.429688 0.078125 1.984375 0.078125 C 1.785156 0.078125 1.59375 0.0625 1.40625 0.03125 C 1.21875 0.0078125 1.035156 -0.0234375 0.859375 -0.078125 C 0.691406 -0.128906 0.53125 -0.191406 0.375 -0.265625 L 0.375 -1.390625 C 0.644531 -1.273438 0.925781 -1.164062 1.21875 -1.0625 C 1.507812 -0.96875 1.796875 -0.921875 2.078125 -0.921875 C 2.273438 -0.921875 2.429688 -0.945312 2.546875 -1 C 2.671875 -1.050781 2.757812 -1.125 2.8125 -1.21875 C 2.875 -1.3125 2.90625 -1.414062 2.90625 -1.53125 C 2.90625 -1.675781 2.851562 -1.796875 2.75 -1.890625 C 2.65625 -1.992188 2.523438 -2.085938 2.359375 -2.171875 C 2.191406 -2.265625 2.003906 -2.363281 1.796875 -2.46875 C 1.660156 -2.53125 1.515625 -2.601562 1.359375 -2.6875 C 1.203125 -2.78125 1.050781 -2.890625 0.90625 -3.015625 C 0.769531 -3.148438 0.65625 -3.3125 0.5625 -3.5 C 0.476562 -3.6875 0.4375 -3.910156 0.4375 -4.171875 C 0.4375 -4.515625 0.515625 -4.804688 0.671875 -5.046875 C 0.828125 -5.285156 1.050781 -5.46875 1.34375 -5.59375 C 1.632812 -5.726562 1.976562 -5.796875 2.375 -5.796875 C 2.664062 -5.796875 2.945312 -5.757812 3.21875 -5.6875 C 3.488281 -5.625 3.769531 -5.523438 4.0625 -5.390625 L 3.671875 -4.453125 C 3.410156 -4.554688 3.175781 -4.632812 2.96875 -4.6875 C 2.757812 -4.75 2.546875 -4.78125 2.328125 -4.78125 C 2.179688 -4.78125 2.050781 -4.753906 1.9375 -4.703125 C 1.832031 -4.660156 1.753906 -4.59375 1.703125 -4.5 C 1.648438 -4.414062 1.625 -4.316406 1.625 -4.203125 C 1.625 -4.066406 1.660156 -3.953125 1.734375 -3.859375 C 1.816406 -3.773438 1.9375 -3.6875 2.09375 -3.59375 C 2.257812 -3.507812 2.460938 -3.410156 2.703125 -3.296875 C 2.992188 -3.160156 3.238281 -3.015625 3.4375 -2.859375 C 3.644531 -2.710938 3.804688 -2.535156 3.921875 -2.328125 C 4.035156 -2.128906 4.09375 -1.882812 4.09375 -1.59375 Z M 4.09375 -1.59375 "/></g></g></g><g fill="#ffffff" fill-opacity="1"><g transform="translate(19.544269, 9.760947)"><g><path d="M 4.015625 0 L 0.71875 0 L 0.71875 -5.71875 L 4.015625 -5.71875 L 4.015625 -4.71875 L 1.9375 -4.71875 L 1.9375 -3.46875 L 3.859375 -3.46875 L 3.859375 -2.46875 L 1.9375 -2.46875 L 1.9375 -1 L 4.015625 -1 Z M 4.015625 0 "/></g></g></g><g fill="#ffffff" fill-opacity="1"><g transform="translate(23.632727, 9.760947)"><g><path d="M 5.90625 -2.859375 C 5.90625 -2.421875 5.847656 -2.019531 5.734375 -1.65625 C 5.628906 -1.300781 5.460938 -0.992188 5.234375 -0.734375 C 5.015625 -0.472656 4.734375 -0.269531 4.390625 -0.125 C 4.054688 0.0078125 3.65625 0.078125 3.1875 0.078125 C 2.71875 0.078125 2.3125 0.0078125 1.96875 -0.125 C 1.632812 -0.269531 1.351562 -0.472656 1.125 -0.734375 C 0.90625 -0.992188 0.738281 -1.300781 0.625 -1.65625 C 0.519531 -2.019531 0.46875 -2.425781 0.46875 -2.875 C 0.46875 -3.46875 0.5625 -3.984375 0.75 -4.421875 C 0.945312 -4.859375 1.25 -5.195312 1.65625 -5.4375 C 2.0625 -5.675781 2.570312 -5.796875 3.1875 -5.796875 C 3.8125 -5.796875 4.320312 -5.675781 4.71875 -5.4375 C 5.125 -5.195312 5.421875 -4.851562 5.609375 -4.40625 C 5.804688 -3.96875 5.90625 -3.453125 5.90625 -2.859375 Z M 1.734375 -2.859375 C 1.734375 -2.460938 1.78125 -2.117188 1.875 -1.828125 C 1.976562 -1.546875 2.132812 -1.328125 2.34375 -1.171875 C 2.5625 -1.015625 2.84375 -0.9375 3.1875 -0.9375 C 3.53125 -0.9375 3.804688 -1.015625 4.015625 -1.171875 C 4.234375 -1.328125 4.390625 -1.546875 4.484375 -1.828125 C 4.585938 -2.117188 4.640625 -2.460938 4.640625 -2.859375 C 4.640625 -3.460938 4.523438 -3.9375 4.296875 -4.28125 C 4.078125 -4.625 3.707031 -4.796875 3.1875 -4.796875 C 2.851562 -4.796875 2.578125 -4.71875 2.359375 -4.5625 C 2.140625 -4.40625 1.976562 -4.179688 1.875 -3.890625 C 1.78125 -3.609375 1.734375 -3.265625 1.734375 -2.859375 Z M 1.734375 -2.859375 "/></g></g></g></g></g><g transform="matrix(1, 0, 0, 1, 238, 127)"><g clip-path="url(#7cd85e146d)"><g fill="#ffffff" fill-opacity="1"><g transform="translate(1.473093, 8.962933)"><g><path d="M 4.09375 -1.59375 C 4.09375 -1.25 4.007812 -0.953125 3.84375 -0.703125 C 3.675781 -0.453125 3.4375 -0.257812 3.125 -0.125 C 2.8125 0.0078125 2.429688 0.078125 1.984375 0.078125 C 1.785156 0.078125 1.59375 0.0625 1.40625 0.03125 C 1.21875 0.0078125 1.035156 -0.0234375 0.859375 -0.078125 C 0.691406 -0.128906 0.53125 -0.191406 0.375 -0.265625 L 0.375 -1.390625 C 0.644531 -1.273438 0.925781 -1.164062 1.21875 -1.0625 C 1.507812 -0.96875 1.796875 -0.921875 2.078125 -0.921875 C 2.273438 -0.921875 2.429688 -0.945312 2.546875 -1 C 2.671875 -1.050781 2.757812 -1.125 2.8125 -1.21875 C 2.875 -1.3125 2.90625 -1.414062 2.90625 -1.53125 C 2.90625 -1.675781 2.851562 -1.796875 2.75 -1.890625 C 2.65625 -1.992188 2.523438 -2.085938 2.359375 -2.171875 C 2.191406 -2.265625 2.003906 -2.363281 1.796875 -2.46875 C 1.660156 -2.53125 1.515625 -2.601562 1.359375 -2.6875 C 1.203125 -2.78125 1.050781 -2.890625 0.90625 -3.015625 C 0.769531 -3.148438 0.65625 -3.3125 0.5625 -3.5 C 0.476562 -3.6875 0.4375 -3.910156 0.4375 -4.171875 C 0.4375 -4.515625 0.515625 -4.804688 0.671875 -5.046875 C 0.828125 -5.285156 1.050781 -5.46875 1.34375 -5.59375 C 1.632812 -5.726562 1.976562 -5.796875 2.375 -5.796875 C 2.664062 -5.796875 2.945312 -5.757812 3.21875 -5.6875 C 3.488281 -5.625 3.769531 -5.523438 4.0625 -5.390625 L 3.671875 -4.453125 C 3.410156 -4.554688 3.175781 -4.632812 2.96875 -4.6875 C 2.757812 -4.75 2.546875 -4.78125 2.328125 -4.78125 C 2.179688 -4.78125 2.050781 -4.753906 1.9375 -4.703125 C 1.832031 -4.660156 1.753906 -4.59375 1.703125 -4.5 C 1.648438 -4.414062 1.625 -4.316406 1.625 -4.203125 C 1.625 -4.066406 1.660156 -3.953125 1.734375 -3.859375 C 1.816406 -3.773438 1.9375 -3.6875 2.09375 -3.59375 C 2.257812 -3.507812 2.460938 -3.410156 2.703125 -3.296875 C 2.992188 -3.160156 3.238281 -3.015625 3.4375 -2.859375 C 3.644531 -2.710938 3.804688 -2.535156 3.921875 -2.328125 C 4.035156 -2.128906 4.09375 -1.882812 4.09375 -1.59375 Z M 4.09375 -1.59375 "/></g></g></g><g fill="#ffffff" fill-opacity="1"><g transform="translate(5.487341, 8.962933)"><g><path d="M 4.015625 0 L 0.71875 0 L 0.71875 -5.71875 L 4.015625 -5.71875 L 4.015625 -4.71875 L 1.9375 -4.71875 L 1.9375 -3.46875 L 3.859375 -3.46875 L 3.859375 -2.46875 L 1.9375 -2.46875 L 1.9375 -1 L 4.015625 -1 Z M 4.015625 0 "/></g></g></g><g fill="#ffffff" fill-opacity="1"><g transform="translate(9.575807, 8.962933)"><g><path d="M 0.71875 0 L 0.71875 -5.71875 L 1.9375 -5.71875 L 1.9375 -1 L 4.25 -1 L 4.25 0 Z M 0.71875 0 "/></g></g></g><g fill="#ffffff" fill-opacity="1"><g transform="translate(13.703336, 8.962933)"><g><path d="M 4.015625 0 L 0.71875 0 L 0.71875 -5.71875 L 4.015625 -5.71875 L 4.015625 -4.71875 L 1.9375 -4.71875 L 1.9375 -3.46875 L 3.859375 -3.46875 L 3.859375 -2.46875 L 1.9375 -2.46875 L 1.9375 -1 L 4.015625 -1 Z M 4.015625 0 "/></g></g></g><g fill="#ffffff" fill-opacity="1"><g transform="translate(17.791803, 8.962933)"><g><path d="M 3.140625 -4.78125 C 2.910156 -4.78125 2.707031 -4.734375 2.53125 -4.640625 C 2.351562 -4.554688 2.203125 -4.429688 2.078125 -4.265625 C 1.960938 -4.097656 1.875 -3.894531 1.8125 -3.65625 C 1.75 -3.414062 1.71875 -3.144531 1.71875 -2.84375 C 1.71875 -2.4375 1.765625 -2.085938 1.859375 -1.796875 C 1.960938 -1.515625 2.117188 -1.300781 2.328125 -1.15625 C 2.535156 -1.007812 2.804688 -0.9375 3.140625 -0.9375 C 3.378906 -0.9375 3.613281 -0.960938 3.84375 -1.015625 C 4.070312 -1.066406 4.328125 -1.140625 4.609375 -1.234375 L 4.609375 -0.21875 C 4.347656 -0.113281 4.09375 -0.0390625 3.84375 0 C 3.601562 0.0507812 3.332031 0.078125 3.03125 0.078125 C 2.445312 0.078125 1.960938 -0.0390625 1.578125 -0.28125 C 1.203125 -0.53125 0.921875 -0.875 0.734375 -1.3125 C 0.554688 -1.75 0.46875 -2.257812 0.46875 -2.84375 C 0.46875 -3.28125 0.523438 -3.675781 0.640625 -4.03125 C 0.753906 -4.394531 0.925781 -4.707031 1.15625 -4.96875 C 1.382812 -5.226562 1.664062 -5.429688 2 -5.578125 C 2.332031 -5.722656 2.710938 -5.796875 3.140625 -5.796875 C 3.429688 -5.796875 3.71875 -5.757812 4 -5.6875 C 4.28125 -5.613281 4.550781 -5.515625 4.8125 -5.390625 L 4.421875 -4.40625 C 4.210938 -4.507812 4 -4.597656 3.78125 -4.671875 C 3.5625 -4.742188 3.347656 -4.78125 3.140625 -4.78125 Z M 3.140625 -4.78125 "/></g></g></g><g fill="#ffffff" fill-opacity="1"><g transform="translate(22.497456, 8.962933)"><g><path d="M 2.921875 0 L 1.71875 0 L 1.71875 -4.703125 L 0.15625 -4.703125 L 0.15625 -5.71875 L 4.46875 -5.71875 L 4.46875 -4.703125 L 2.921875 -4.703125 Z M 2.921875 0 "/></g></g></g><g fill="#ffffff" fill-opacity="1"><g transform="translate(26.738267, 8.962933)"><g><path d="M 5.90625 -2.859375 C 5.90625 -2.421875 5.847656 -2.019531 5.734375 -1.65625 C 5.628906 -1.300781 5.460938 -0.992188 5.234375 -0.734375 C 5.015625 -0.472656 4.734375 -0.269531 4.390625 -0.125 C 4.054688 0.0078125 3.65625 0.078125 3.1875 0.078125 C 2.71875 0.078125 2.3125 0.0078125 1.96875 -0.125 C 1.632812 -0.269531 1.351562 -0.472656 1.125 -0.734375 C 0.90625 -0.992188 0.738281 -1.300781 0.625 -1.65625 C 0.519531 -2.019531 0.46875 -2.425781 0.46875 -2.875 C 0.46875 -3.46875 0.5625 -3.984375 0.75 -4.421875 C 0.945312 -4.859375 1.25 -5.195312 1.65625 -5.4375 C 2.0625 -5.675781 2.570312 -5.796875 3.1875 -5.796875 C 3.8125 -5.796875 4.320312 -5.675781 4.71875 -5.4375 C 5.125 -5.195312 5.421875 -4.851562 5.609375 -4.40625 C 5.804688 -3.96875 5.90625 -3.453125 5.90625 -2.859375 Z M 1.734375 -2.859375 C 1.734375 -2.460938 1.78125 -2.117188 1.875 -1.828125 C 1.976562 -1.546875 2.132812 -1.328125 2.34375 -1.171875 C 2.5625 -1.015625 2.84375 -0.9375 3.1875 -0.9375 C 3.53125 -0.9375 3.804688 -1.015625 4.015625 -1.171875 C 4.234375 -1.328125 4.390625 -1.546875 4.484375 -1.828125 C 4.585938 -2.117188 4.640625 -2.460938 4.640625 -2.859375 C 4.640625 -3.460938 4.523438 -3.9375 4.296875 -4.28125 C 4.078125 -4.625 3.707031 -4.796875 3.1875 -4.796875 C 2.851562 -4.796875 2.578125 -4.71875 2.359375 -4.5625 C 2.140625 -4.40625 1.976562 -4.179688 1.875 -3.890625 C 1.78125 -3.609375 1.734375 -3.265625 1.734375 -2.859375 Z M 1.734375 -2.859375 "/></g></g></g><g fill="#ffffff" fill-opacity="1"><g transform="translate(32.71345, 8.962933)"><g><path d="M 2.390625 -5.71875 C 2.898438 -5.71875 3.320312 -5.65625 3.65625 -5.53125 C 4 -5.40625 4.253906 -5.210938 4.421875 -4.953125 C 4.585938 -4.703125 4.671875 -4.382812 4.671875 -4 C 4.671875 -3.738281 4.617188 -3.507812 4.515625 -3.3125 C 4.421875 -3.125 4.289062 -2.960938 4.125 -2.828125 C 3.96875 -2.691406 3.796875 -2.578125 3.609375 -2.484375 L 5.28125 0 L 3.9375 0 L 2.578125 -2.1875 L 1.9375 -2.1875 L 1.9375 0 L 0.71875 0 L 0.71875 -5.71875 Z M 2.296875 -4.71875 L 1.9375 -4.71875 L 1.9375 -3.171875 L 2.328125 -3.171875 C 2.722656 -3.171875 3.003906 -3.238281 3.171875 -3.375 C 3.347656 -3.507812 3.4375 -3.707031 3.4375 -3.96875 C 3.4375 -4.238281 3.34375 -4.429688 3.15625 -4.546875 C 2.976562 -4.660156 2.691406 -4.71875 2.296875 -4.71875 Z M 2.296875 -4.71875 "/></g></g></g></g></g></svg>